<svg width="5" height="22" viewBox="0 0 5 22" fill="none" xmlns="http://www.w3.org/2000/svg">
	<path d="M1.34514 14.42L0.865137 4.19L0.802145 1.79631C0.787345 1.23392 1.23921 0.770004 1.8018 0.770004H3.21943C3.78547 0.770004 4.23867 1.23939 4.21882 1.80507L4.13514 4.19L3.65514 14.42H1.34514ZM2.51514 21.23C1.89514 21.23 1.36514 21.01 0.925137 20.57C0.485137 20.11 0.265137 19.55 0.265137 18.89C0.265137 18.21 0.485137 17.65 0.925137 17.21C1.36514 16.77 1.89514 16.55 2.51514 16.55C3.15514 16.55 3.68514 16.77 4.10514 17.21C4.52514 17.65 4.73514 18.21 4.73514 18.89C4.73514 19.55 4.52514 20.11 4.10514 20.57C3.68514 21.01 3.15514 21.23 2.51514 21.23Z" fill="white" />
</svg>
