<svg viewBox="0 0 24 23" fill="none" xmlns="http://www.w3.org/2000/svg">
<g id="Group">
<g id="Group_2">
<path id="Vector" d="M8.87905 15.9561L7.61486 17.2203L1.5 11.1055L2.76419 9.8413C3.21731 9.38818 3.95192 9.38818 4.40499 9.8413L8.879 14.3153C9.33217 14.7684 9.33217 15.503 8.87905 15.9561Z" stroke="currentColor" stroke-width="1.5" stroke-miterlimit="10" stroke-linecap="round" stroke-linejoin="round"/>
<path id="Vector_2" d="M16.4566 8.37905L17.7208 7.11486L11.606 1L10.3418 2.26419C9.88867 2.71731 9.88867 3.45192 10.3418 3.90499L14.8158 8.379C15.2689 8.83217 16.0035 8.83217 16.4566 8.37905Z" stroke="currentColor" stroke-width="1.5" stroke-miterlimit="10" stroke-linecap="round" stroke-linejoin="round"/>
</g>
<path id="Vector_3" d="M10.2254 3.77002L4.27051 9.72495" stroke="currentColor" stroke-width="1.5" stroke-miterlimit="10" stroke-linecap="round" stroke-linejoin="round"/>
<path id="Vector_4" d="M14.9501 8.49512L8.99512 14.4501" stroke="currentColor" stroke-width="1.5" stroke-miterlimit="10" stroke-linecap="round" stroke-linejoin="round"/>
<path id="Vector_5" d="M13.0153 10.4307L22.5003 19.9156L20.4157 22.0003L10.9307 12.5153" stroke="currentColor" stroke-width="1.5" stroke-miterlimit="10" stroke-linecap="round" stroke-linejoin="round"/>
</g>
</svg>
