<svg viewBox="0 0 21 18" fill="none" xmlns="http://www.w3.org/2000/svg">
<path id="Vector" d="M4.5 3.87803V3C4.5 1.75736 5.50736 0.75 6.75 0.75H14.25C15.4926 0.75 16.5 1.75736 16.5 3V3.87803M4.5 3.87803C4.73458 3.79512 4.98702 3.75 5.25 3.75H15.75C16.013 3.75 16.2654 3.79512 16.5 3.87803M4.5 3.87803C3.62611 4.18691 3 5.02034 3 6V6.87803M16.5 3.87803C17.3739 4.18691 18 5.02034 18 6V6.87803M18 6.87803C17.7654 6.79512 17.513 6.75 17.25 6.75H3.75C3.48702 6.75 3.23458 6.79512 3 6.87803M18 6.87803C18.8739 7.18691 19.5 8.02034 19.5 9V15C19.5 16.2426 18.4926 17.25 17.25 17.25H3.75C2.50736 17.25 1.5 16.2426 1.5 15V9C1.5 8.02034 2.12611 7.18691 3 6.87803" stroke="currentColor" stroke-width="1.5" stroke-linecap="round" stroke-linejoin="round"/>
</svg>
