<svg viewBox="0 0 19 19" fill="none" xmlns="http://www.w3.org/2000/svg">
<path id="star-outline" d="M9.26224 1.15881C9.33707 0.928485 9.66293 0.928488 9.73776 1.15881L11.2564 5.83258C11.4906 6.55362 12.1626 7.0418 12.9207 7.0418H17.835C18.0772 7.0418 18.1779 7.3517 17.9819 7.49405L14.0062 10.3826C13.3929 10.8282 13.1362 11.6181 13.3705 12.3392L14.8891 17.0129C14.9639 17.2432 14.7003 17.4348 14.5044 17.2924L10.5286 14.4039C9.91527 13.9583 9.08473 13.9583 8.47138 14.4039L4.49564 17.2924C4.29971 17.4348 4.03609 17.2432 4.11093 17.0129L5.62952 12.3392C5.8638 11.6181 5.60715 10.8282 4.9938 10.3826L1.01806 7.49405C0.822131 7.3517 0.922826 7.0418 1.16501 7.0418H6.07929C6.83743 7.0418 7.50936 6.55362 7.74364 5.83258L9.26224 1.15881Z" stroke="currentColor" stroke-width="1.5"/>
</svg>
