<svg viewBox="0 0 111 48" fill="none" xmlns="http://www.w3.org/2000/svg">
<g id="Logo">
<g id="Group 5">
<g id="Group 2">
<g id="CARAUKTION">
<path d="M10.3515 31.9513C9.79802 32.1792 9.03289 32.3094 8.26775 32.3094C6.3305 32.3094 5.35373 31.1373 5.35373 29.3954C5.35373 27.8651 5.93979 26.6116 6.86772 25.8627C7.53518 25.3092 8.43055 25.0162 9.37476 25.0162C10.319 25.0162 11.0353 25.2116 11.3609 25.3744L11.9958 23.4697C11.6864 23.2743 10.7911 22.9976 9.60267 22.9976C8.05612 22.9976 6.70492 23.372 5.56536 24.1697C3.90486 25.2767 2.79785 27.1977 2.79785 29.6559C2.79785 32.5536 4.75139 34.3118 7.64913 34.3118C8.96777 34.3118 9.96082 34.1002 10.5469 33.8397L10.3515 31.9513Z" fill="#1D1D1D"/>
<path d="M18.5864 31.3001L18.8143 34.149H21.2725L19.9864 23.1766H16.9747L11.6351 34.149H14.1258L15.4282 31.3001H18.5864ZM16.1119 29.5093L17.2026 27.1488C17.4957 26.5139 17.805 25.6674 18.0817 24.9999H18.1143C18.1631 25.6674 18.2282 26.5465 18.2771 27.1488L18.4887 29.5093H16.1119Z" fill="#1D1D1D"/>
<path d="M22.952 34.149H25.2799L26.0939 29.8187H26.8102C27.7381 29.8187 28.1939 30.2256 28.2916 31.5606C28.4056 32.9118 28.5195 33.856 28.6172 34.149H31.0266C30.8312 33.6932 30.7335 32.2606 30.6033 31.0396C30.4894 30.0466 30.2126 29.314 29.5614 29.0372V28.9721C30.9615 28.5163 32.0522 27.507 32.0522 25.879C32.0522 24.8534 31.5475 24.1534 30.8312 23.7301C30.0661 23.258 28.9916 23.0952 27.9498 23.0952C26.859 23.0952 25.752 23.2092 25.0194 23.3883L22.952 34.149ZM27.0218 25.0325C27.2172 24.9837 27.4939 24.9511 27.9335 24.9511C28.8614 24.9511 29.6103 25.3418 29.6103 26.2209C29.6103 27.2953 28.6823 28.0605 27.4125 28.0605H26.4358L27.0218 25.0325Z" fill="#1D1D1D"/>
<path d="M39.2766 31.3001L39.5045 34.149H41.9627L40.6766 23.1766H37.6649L32.3252 34.149H34.816L36.1184 31.3001H39.2766ZM36.8021 29.5093L37.8928 27.1488C38.1859 26.5139 38.4952 25.6674 38.7719 24.9999H38.8045C38.8533 25.6674 38.9184 26.5465 38.9673 27.1488L39.1789 29.5093H36.8021Z" fill="#D81825"/>
<path d="M45.1524 23.1766L43.9966 29.2977C43.8989 29.8187 43.8338 30.3559 43.8338 30.828C43.8338 33.1722 45.2176 34.3281 47.4804 34.3281C50.4595 34.3281 51.9247 32.7327 52.5596 29.4117L53.748 23.1766H51.4038L50.1991 29.5093C49.8084 31.5443 48.9944 32.3583 47.7734 32.3583C46.7153 32.3583 46.1781 31.6745 46.1781 30.7954C46.1781 30.307 46.2106 29.8675 46.292 29.4931L47.4967 23.1766H45.1524Z" fill="#D81825"/>
<path d="M54.2734 34.149H56.5851L57.2851 30.4861L58.4572 29.3791L60.2968 34.149H62.8364L60.2968 27.914L64.7411 23.1766H61.8108L58.7665 26.8232C58.4572 27.2139 58.1154 27.6046 57.7898 28.0768H57.7409L58.6689 23.1766H56.3572L54.2734 34.149Z" fill="#D81825"/>
<path d="M66.3665 34.149H68.7107L70.3875 25.2278H73.3178L73.7085 23.1766H65.5525L65.1455 25.2278H68.0433L66.3665 34.149Z" fill="#D81825"/>
<path d="M75.4723 23.1766L73.3885 34.149H75.7328L77.8166 23.1766H75.4723Z" fill="#D81825"/>
<path d="M84.8886 22.9976C83.3095 22.9976 81.9094 23.5836 80.8838 24.5604C79.5978 25.7976 78.8652 27.7674 78.8652 29.7535C78.8652 32.3094 80.4606 34.3281 83.3095 34.3281C84.9537 34.3281 86.3375 33.742 87.3631 32.749C88.6166 31.5117 89.3166 29.5745 89.3166 27.5721C89.3166 24.9511 87.7863 22.9976 84.8886 22.9976ZM84.6118 24.9511C86.3375 24.9511 86.8258 26.2697 86.8258 27.6372C86.8258 28.907 86.3537 30.714 85.4909 31.5768C84.9863 32.0652 84.3351 32.3745 83.6514 32.3745C82.056 32.3745 81.3559 31.2187 81.3559 29.6721C81.3559 28.3535 81.8443 26.6442 82.7234 25.7813C83.2281 25.2604 83.8793 24.9511 84.6118 24.9511Z" fill="#D81825"/>
<path d="M92.5412 34.149L93.2575 30.307C93.5831 28.5814 93.8436 27.0186 93.9738 25.9604L94.0226 25.9441C94.3157 27.2953 94.6087 28.2884 95.0971 29.7698L96.6274 34.149H99.053L101.12 23.1766H98.939L98.1902 27.1651C97.8809 28.7768 97.7344 29.9815 97.6855 31.1047H97.6367C97.3762 29.9001 97.0832 28.7605 96.6436 27.3605L95.1948 23.1766H92.4435L90.3598 34.149H92.5412Z" fill="#D81825"/>
</g>
<g id="Group 1">
<path id="image 2 (Traced)" fill-rule="evenodd" clip-rule="evenodd" d="M102.742 1.47376L101.089 2.18802L93.2033 2.15722C88.8664 2.14046 82.3991 1.99642 78.8316 1.83724C72.0288 1.53375 68.911 1.69563 66.4325 2.48124C64.7417 3.01715 61.2325 5.5283 58.4795 8.17242C54.5912 11.907 53.1645 12.4253 45.128 13.0223C39.404 13.4474 37.7923 13.7749 36.0769 14.8616C34.4296 15.9056 32.3608 18.1989 31.6242 19.7985C30.6751 21.86 30.9214 22.498 31.9897 20.7444C32.8309 19.3637 34.6583 17.7017 36.3119 16.8136C37.6074 16.1177 40.1585 15.6445 44.3649 15.3202C53.5033 14.6151 54.5826 14.1917 59.8497 9.24611C62.6859 6.58335 64.3983 5.34048 66.2445 4.60567C67.423 4.13652 68.7246 4.09139 84.7431 3.96545L101.974 3.82979L103.436 2.27586C104.241 1.42133 104.785 0.730302 104.647 0.740842C104.509 0.751111 103.651 1.08108 102.742 1.47376Z" fill="#1D1D1D"/>
<path id="image 2 (Traced)_2" fill-rule="evenodd" clip-rule="evenodd" d="M42.5973 6.76666C40.0292 7.2723 37.675 8.29087 34.2032 10.3985C26.9949 14.7744 25.6712 15.1968 16.7569 15.9635C10.2482 16.5235 7.14443 17.4601 4.51936 19.6562C2.60322 21.2596 -0.00989214 25.6079 2.81614e-05 27.1767C0.0035893 27.712 0.170708 27.5269 0.80459 26.2851C1.9322 24.0769 4.3876 21.5336 6.41643 20.4726C9.00029 19.1208 11.5493 18.5568 17.0734 18.1141C22.3779 17.689 24.0183 17.4369 26.0635 16.7329C27.5322 16.227 30.5922 14.652 33.0252 13.1494C36.0143 11.3033 38.8301 9.90641 40.7366 9.32376C44.2334 8.25546 50.2313 8.33464 54.1224 9.5005C55.4095 9.88614 55.514 9.87804 56.3481 9.33051C56.8296 9.01432 57.2234 8.66165 57.2234 8.54679C57.2234 8.26114 53.8278 7.21284 51.4314 6.75882C48.9987 6.29805 44.9604 6.30156 42.5973 6.76666ZM59.9105 10.4561C59.5318 10.7723 59.3161 11.1252 59.431 11.2404C59.5457 11.3552 61.2424 12.076 63.201 12.8419C65.1596 13.6077 68.2438 14.8501 70.0549 15.6027C75.3903 17.8196 78.5123 18.563 83.1688 18.7246C88.308 18.903 88.903 18.7363 90.128 16.7761C90.6372 15.9611 91.0541 15.2382 91.0541 15.1698C91.0541 15.1014 90.3961 15.3681 89.5915 15.7627C88.2981 16.3972 87.7418 16.4929 84.7815 16.5891C79.2057 16.7707 75.654 15.8659 65.4511 11.6657C63.0662 10.6839 60.9989 9.88074 60.857 9.88074C60.7148 9.88074 60.289 10.1396 59.9105 10.4561Z" fill="#D81825"/>
</g>
</g>
<g id="DIRECT">
<path d="M72.6973 47.0853C73.0162 47.1433 73.6929 47.2013 74.4758 47.2013C75.887 47.2013 76.844 46.9404 77.5979 46.3411C78.4098 45.6934 78.9415 44.6012 78.9415 43.3446C78.9318 42.3877 78.6032 41.7401 78.0812 41.3051C77.5302 40.8315 76.7183 40.5995 75.7034 40.5995C75.0751 40.5995 74.4565 40.6478 73.9055 40.7445L72.6973 47.0853ZM75.1137 41.7594C75.2587 41.7304 75.4617 41.7207 75.7034 41.7207C76.8536 41.7207 77.4239 42.3297 77.4239 43.3543C77.4239 44.1372 77.1919 44.8138 76.7473 45.3165C76.322 45.8094 75.655 46.0801 74.9011 46.0801C74.6595 46.0801 74.4565 46.0704 74.2921 46.0414L75.1137 41.7594Z" fill="#D81825"/>
<path d="M81.9153 40.6478L80.6781 47.1627H82.07L83.3072 40.6478H81.9153Z" fill="#D81825"/>
<path d="M84.8094 47.1627H86.1917L86.675 44.5915H87.1003C87.6512 44.5915 87.9219 44.8332 87.9799 45.6258C88.0475 46.4281 88.1152 46.9887 88.1732 47.1627H89.6037C89.4877 46.892 89.4298 46.0414 89.3524 45.3165C89.2848 44.7269 89.1204 44.2919 88.7338 44.1276V44.0889C89.5651 43.8183 90.2127 43.219 90.2127 42.2524C90.2127 41.6434 89.9131 41.2278 89.4877 40.9765C89.0335 40.6962 88.3955 40.5995 87.7769 40.5995C87.1293 40.5995 86.472 40.6672 86.037 40.7735L84.8094 47.1627ZM87.2259 41.7497C87.3419 41.7207 87.5062 41.7014 87.7672 41.7014C88.3182 41.7014 88.7628 41.9334 88.7628 42.4554C88.7628 43.0933 88.2118 43.5476 87.4579 43.5476H86.8779L87.2259 41.7497Z" fill="#D81825"/>
<path d="M96.3506 43.2286H94.0308L94.3015 41.8367H96.7566L96.9886 40.6478H93.1319L91.8946 47.1627H95.8867L96.109 45.9738H93.5089L93.8085 44.3982H96.1283L96.3506 43.2286Z" fill="#D81825"/>
<path d="M103.113 45.8578C102.784 45.9931 102.33 46.0704 101.876 46.0704C100.725 46.0704 100.146 45.3745 100.146 44.3402C100.146 43.4316 100.493 42.6873 101.044 42.2427C101.441 41.9141 101.972 41.7401 102.533 41.7401C103.094 41.7401 103.519 41.8561 103.712 41.9527L104.089 40.8218C103.906 40.7058 103.374 40.5415 102.668 40.5415C101.75 40.5415 100.948 40.7638 100.271 41.2375C99.2852 41.8947 98.6279 43.0353 98.6279 44.4949C98.6279 46.2154 99.7879 47.2593 101.508 47.2593C102.291 47.2593 102.881 47.1337 103.229 46.979L103.113 45.8578Z" fill="#D81825"/>
<path d="M106.64 47.1627H108.032L109.028 41.8657H110.768L111 40.6478H106.157L105.915 41.8657H107.636L106.64 47.1627Z" fill="#D81825"/>
</g>
</g>
</g>
</svg>
